<?xml version="1.0" encoding="iso-8859-1"?>
<!-- Generator: Adobe Illustrator 19.0.0, SVG Export Plug-In . SVG Version: 6.00 Build 0)  -->
<svg version="1.1" id="Capa_1" xmlns="http://www.w3.org/2000/svg" xmlns:xlink="http://www.w3.org/1999/xlink" x="0px" y="0px"
	 viewBox="0 0 480.009 480.009" style="enable-background:new 0 0 480.009 480.009;" xml:space="preserve">
<g>
	<g>
		<path d="M357.659,154.353l-32-32c-3.124-3.123-8.188-3.123-11.312,0l-37.376,37.376c-24.812,24.845-54.043,44.84-86.192,58.96
			c-33.965,14.912-64.847,36.037-91.056,62.288l-73.376,73.376l-24,24c-3.123,3.124-3.123,8.188,0,11.312l88,88
			c1.5,1.5,3.534,2.344,5.656,2.344c2.122,0,4.156-0.844,5.656-2.344l24-24l73.376-73.376c26.255-26.21,47.383-57.095,62.296-91.064
			c14.111-32.149,34.105-61.379,58.952-86.184l37.376-37.376C360.782,162.541,360.782,157.477,357.659,154.353z M96.003,460.697
			l-76.688-76.688l12.688-12.688l76.688,76.688L96.003,460.697z M120.003,436.697l-76.688-76.688l62.064-62.064l76.688,76.688
			L120.003,436.697z M246.699,282.817c-13.06,29.672-31.141,56.868-53.448,80.392l-76.448-76.448
			c23.537-22.302,50.744-40.377,80.424-53.432c0.936-0.416,1.84-0.88,2.776-1.296v40c0,4.418,3.582,8,8,8h40
			C247.579,280.969,247.115,281.873,246.699,282.817z M308.971,191.729c-21.268,21.269-39.189,45.639-53.152,72.28h-39.816v-39.816
			c26.641-13.964,51.011-31.884,72.28-53.152l7.72-7.72l20.688,20.688L308.971,191.729z M328.003,172.697l-20.688-20.688
			l12.688-12.688l20.688,20.688L328.003,172.697z"/>
	</g>
</g>
<g>
	<g>
		<path d="M478.249,34.996c-0.184-0.23-0.382-0.45-0.59-0.659l-32-31.984c-1.614-1.6-3.826-2.45-6.096-2.344
			c-2.272,0.123-4.385,1.209-5.808,2.984l-32,40c-2.547,3.184-2.292,7.774,0.592,10.656l24,24c2.882,2.884,7.472,3.139,10.656,0.592
			l40-32C480.452,43.48,481.01,38.445,478.249,34.996z M432.595,61.289l-13.872-13.872l21.944-27.408l19.36,19.36L432.595,61.289z"
			/>
	</g>
</g>
<g>
	<g>
		<rect x="351.718" y="92.024" transform="matrix(0.7071 -0.7071 0.7071 0.7071 40.5713 297.9953)" width="56.56" height="16"/>
	</g>
</g>
<g>
	<g>
		<path d="M349.659,42.353l-11.312,11.312c10.113,10.139,10.113,26.549,0,36.688l-8,8l11.312,11.312l8-8
			C366.005,85.273,366.005,58.745,349.659,42.353z"/>
	</g>
</g>
<g>
	<g>
		<path d="M378.364,130.336c-0.006,0.006-0.011,0.011-0.017,0.017l-8,8l11.312,11.312l8-8c10.266-9.799,26.422-9.799,36.688,0
			l11.312-11.312C421.29,113.974,394.743,113.967,378.364,130.336z"/>
	</g>
</g>
<g>
	<g>
		<rect x="232.003" y="0.009" width="16" height="24"/>
	</g>
</g>
<g>
	<g>
		<rect x="208.003" y="24.009" width="24" height="16"/>
	</g>
</g>
<g>
	<g>
		<rect x="248.003" y="24.009" width="24" height="16"/>
	</g>
</g>
<g>
	<g>
		<rect x="232.003" y="40.009" width="16" height="24"/>
	</g>
</g>
<g>
	<g>
		<rect x="400.003" y="272.009" width="16" height="24"/>
	</g>
</g>
<g>
	<g>
		<rect x="376.003" y="296.009" width="24" height="16"/>
	</g>
</g>
<g>
	<g>
		<rect x="416.003" y="296.009" width="24" height="16"/>
	</g>
</g>
<g>
	<g>
		<rect x="400.003" y="312.009" width="16" height="24"/>
	</g>
</g>
<g>
	<g>
		<rect x="64.003" y="160.009" width="16" height="24"/>
	</g>
</g>
<g>
	<g>
		<rect x="40.003" y="184.009" width="24" height="16"/>
	</g>
</g>
<g>
	<g>
		<rect x="80.003" y="184.009" width="24" height="16"/>
	</g>
</g>
<g>
	<g>
		<rect x="64.003" y="200.009" width="16" height="24"/>
	</g>
</g>
<g>
	<g>
		<rect x="192.003" y="104.009" width="16" height="16"/>
	</g>
</g>
<g>
	<g>
		<rect x="120.003" y="48.009" width="16" height="16"/>
	</g>
</g>
<g>
	<g>
		<rect x="352.003" y="232.009" width="16" height="16"/>
	</g>
</g>
<g>
	<g>
		<rect x="448.003" y="168.009" width="16" height="16"/>
	</g>
</g>
<g>
	<g>
		<rect x="304.003" y="336.009" width="16" height="16"/>
	</g>
</g>
<g>
	<g>
		<rect x="344.003" y="432.009" width="16" height="16"/>
	</g>
</g>
<g>
</g>
<g>
</g>
<g>
</g>
<g>
</g>
<g>
</g>
<g>
</g>
<g>
</g>
<g>
</g>
<g>
</g>
<g>
</g>
<g>
</g>
<g>
</g>
<g>
</g>
<g>
</g>
<g>
</g>
</svg>
