<svg xmlns="http://www.w3.org/2000/svg" width="512" height="512" viewBox="0 0 512 512">
  <path id="laberinto" d="M512,256C512,132.586,409.982,0,256,0,198.754,0,144.687,19.516,99.613,54.569a15,15,0,0,0,18.428,23.672A222.705,222.705,0,0,1,256,31c97.745,0,180.892,62.752,211.875,150H436A195.479,195.479,0,0,0,256,61C148.48,61,61,148.48,61,256a192.957,192.957,0,0,0,19.058,84.053A14.991,14.991,0,0,0,107.1,327.1,163.391,163.391,0,0,1,91,256c0-85.919,66.031-156.627,150-164.24v30.075C173.588,129.32,121,186.625,121,256c0,31.813,11.517,60.7,29.993,83.8l-64.12,64.12a224.364,224.364,0,0,1-8.632-285.875A15,15,0,1,0,54.569,99.613C19.516,144.687,0,198.754,0,256,0,394.925,116.288,512,256,512c138.8,0,256-116.293,256-256ZM256,151a14.991,14.991,0,0,0,15-15V92.181C334.519,98.04,389.958,140,411.581,201.01A14.99,14.99,0,0,0,425.717,211h50.748a224.1,224.1,0,0,1-51.337,192.916l-21.207-21.207A193.992,193.992,0,0,0,451,256a14.991,14.991,0,0,0-15-15H389.995A135.619,135.619,0,0,0,323.53,139.12a15,15,0,0,0-15.059,25.957A104.983,104.983,0,0,1,256,361c-52.755,0-96.127-39.25-103.484-90H196a14.991,14.991,0,0,0,15-15,44.983,44.983,0,1,1,21.445,38.35A15,15,0,0,0,216.712,319.9a75,75,0,1,0-34.2-78.9H152.516c7.357-50.75,50.729-90,103.484-90ZM108.084,425.127l64.12-64.12C195.3,379.483,224.187,391,256,391c69.307,0,125.911-52.685,133.484-120h30.842c-7.6,83.979-78.4,150-164.326,150a163.392,163.392,0,0,1-71.1-16.1,14.991,14.991,0,1,0-12.949,27.041A194.365,194.365,0,0,0,382.709,403.92l21.207,21.207a223.73,223.73,0,0,1-295.832,0Z" fill="#f8dc5f"/>
</svg>
